<svg xmlns="http://www.w3.org/2000/svg" width="25.156" height="25.094" viewBox="0 0 25.156 25.094">
  <defs>
    <style>
      .cls-1 {
        fill: #fff;
        fill-rule: evenodd;
      }
    </style>
  </defs>
  <path id="bag.svg" class="cls-1" d="M640.151,315.18h-6.46l0.934,3.731a0.783,0.783,0,0,1-.571.951,0.793,0.793,0,0,1-.192.023,0.784,0.784,0,0,1-.761-0.594l-1.031-4.111h-8.99l-1.03,4.111a0.786,0.786,0,0,1-1.525-.38l0.935-3.731H615v-1.568h6.853l1.816-7.248a0.786,0.786,0,0,1,1.525.382l-1.721,6.866h8.2l-1.72-6.866a0.786,0.786,0,0,1,1.525-.382l1.816,7.248h6.853v1.568Zm-22.007,3.086,1.474,11.028h15.915l1.474-11.028v-1.517h1.572l-0.007,1.671-1.663,12.443H618.242l-1.67-12.546v-1.568h1.572v1.517Z" transform="translate(-615 -305.781)"/>
</svg>
