<svg xmlns="http://www.w3.org/2000/svg" width="86.809" height="74.968" viewBox="0 0 86.809 74.968">
  <defs>
    <style>
      .cls-1 {
        fill: #fff;
        fill-rule: evenodd;
        opacity: 0.7;
      }
    </style>
  </defs>
  <path id="price-3-icon.svg" class="cls-1" d="M999.091,640.721c-5.941-7.368-21.564-8.619-25.589.7a15.483,15.483,0,0,0-7.438-5.324c-7.19-2.506-13.967-.516-19.115,4.419,0.021-.352.07-0.688,0.07-1.053,0-6.179-.181-13.357,2.1-19.29a9.987,9.987,0,0,0,6.783,2.292c5.055-.229,9.836-0.635,11.864-5.942,1.9-4.975-.3-10.735-3.8-14.432-2.467-2.609-3.395-2.679-6.97-2.473a89.611,89.611,0,0,0-10.537,1c-5.821,1.032-10.648,9.862-13.448,14.586-8.333,14.057-16.006,29.5-17.239,45.968a1.022,1.022,0,0,0,.512.882c22.042,14.352,54.6,17.5,77.643,3.261C1002.31,660.138,1005.71,648.93,999.091,640.721ZM992.2,663.934c-12.059,6.961-26.873,9.285-40.647,8.1a76.332,76.332,0,0,1-20.546-4.689,69.314,69.314,0,0,1-10.369-4.977c-4.2-2.465-2.184-7.553-1.2-11.614a103.933,103.933,0,0,1,8.9-22.581c3.6-7.044,7.259-14.233,12.358-20.353,1.472-1.766,2.874-3.562,4.957-4.583,2.609-1.279,5.937-1.242,8.822-1.427,2.614-.167,5.272-0.563,7.52,1.2a12.932,12.932,0,0,1,3.916,6.511c0.776,2.967.54,7.175-2.179,9.157-1.916,1.4-4.578,1.449-6.914,1.659a11.627,11.627,0,0,1-2.141.18c-1.859-.224-5.141-2.256-3.479-4.562,0.71-.987,3.726-1.462,4.867-1.43a1.022,1.022,0,0,0,0-2.044c-2.492-.066-7.791,1.388-8.136,4.491a3.994,3.994,0,0,0-.01.771c-2.174,4.6-2.553,9.85-2.781,14.863-0.125,2.74.052,5.533-.155,8.259-0.386,5.083-3.949,9.141-7.488,12.661a1.029,1.029,0,0,0,1.462,1.446c3.43-3.413,6.23-6.747,7.429-10.929a0.908,0.908,0,0,0,.244-0.192c4.9-5.813,11.9-8.5,19.283-5.6,2.744,1.078,5.829,3.178,6.844,6.088,0.3,0.871,1.792,1.068,1.993,0,2.181-11.568,20.01-8.387,24.177.127C1002.67,652.1,999.246,659.866,992.2,663.934Zm-22.513-9.082c-3.312,2.893-6.323,4.126-10.742,3.856-4.227-.258-8.119-0.848-11.677-3.234-1.1-.74-2.139,1.03-1.043,1.766,4.19,2.809,9.078,3.439,14.057,3.579,4.4,0.125,7.6-1.667,10.866-4.521C972.145,655.425,970.679,653.984,969.685,654.852Zm-19.316-7.835c0.944-1.837,2.706-2.905,4.438-3.936a1.025,1.025,0,0,0-1.043-1.764c-2.026,1.2-4.077,2.524-5.179,4.669C947.984,647.157,949.767,648.191,950.369,647.017Zm6.717-5a1.022,1.022,0,0,0,0-2.044A1.022,1.022,0,0,0,957.086,642.018Z" transform="translate(-915.781 -599.563)"/>
</svg>
