<svg xmlns="http://www.w3.org/2000/svg" width="91.031" height="50.625" viewBox="0 0 91.031 50.625">
  <defs>
    <style>
      .cls-1 {
        fill: #fff;
        fill-rule: evenodd;
        opacity: 0.7;
      }
    </style>
  </defs>
  <path id="price-1-icon.svg" class="cls-1" d="M713.618,638.19c-0.057-.786-0.166-1.565-0.188-2.351-0.025-.9.168-1.845-0.41-2.605-0.936-1.229-2.631-1.062-4.054-1.031-0.041-2.06-.085-4.12-0.086-6.182,0-1.418.48-3.847-.4-5.111-1.434-2.074-5.653-1.814-8.177-1.882-0.023-.348-0.018-0.7-0.049-1.047-0.467-5.314-3.385-6.145-8.537-6.185-5.69-.042-7.169,1.947-7.564,7.468-0.312,4.356-.423,8.748-0.489,13.134-5.428.445-11.236-.181-16.691-0.116-4.681.055-9.392,0.085-14.074,0.263-0.067-4.348-.191-8.7-0.5-13.016-0.388-5.471-1.862-7.51-7.565-7.469-3.976,0-8.057.377-8.573,4.861-0.09.787-.154,1.58-0.2,2.379-2.484.046-6.365-.164-7.81,1.646-1.844,2.306-.993,8.429-1.014,11.125,0,0.092,0,.192,0,0.286a8.5,8.5,0,0,0-3.394.249c-1.673.7-1.051,3.519-1.035,4.927,0.017,1.461-.514,3.794,1.335,4.182a12.215,12.215,0,0,0,2.892.2,40.865,40.865,0,0,0,.973,9.86c0.962,3.768,4.616,3.751,8.173,3.821,0.032,0.485.034,0.984,0.076,1.463,0.422,4.768,3.06,5.084,7.324,5.154,2.713,0.046,6.988.986,8.57-1.712,0.934-1.593.737-4.362,0.795-6.137,0.123-3.817.091-7.643,0.058-11.462,0-.305,0-0.611-0.007-0.915,10.162-.119,20.416.381,30.557-0.153-0.037,3.413-.049,6.829.012,10.242,0.04,2.207-.331,5.014.389,7.12,1.229,3.6,5.511,2.8,8.723,2.754,3.628-.055,6.645.179,7.5-3.964a16.932,16.932,0,0,0,.307-2.656c3.379-.066,7.085-0.075,8.051-3.683a33.767,33.767,0,0,0,.756-9.406,7.162,7.162,0,0,0,3.38-.45C713.962,641.143,713.707,639.4,713.618,638.19Zm-88.74,1.613c-0.1-.914,0-1.942-0.006-2.819-0.006-.549-0.021-1.1-0.019-1.649a1.458,1.458,0,0,0-.053-0.889,8.06,8.06,0,0,1,1.4-.028c0.335-.009.671,0,1.006,0.009-0.046,1.776-.111,3.636-0.143,5.509A9.446,9.446,0,0,1,624.878,639.8Zm5.057,10.263a27.49,27.49,0,0,1-.315-4.993c-0.225-4.33-.341-8.667-0.308-13,0.019-2.545-.27-5.589.336-8.078,0.711-2.916,3.57-2.585,6.348-2.643-0.087,4.775.37,9.666,0.276,14.378-0.115,5.8-.436,11.925-0.2,17.821C632.824,653.5,630.834,653.684,629.935,650.066Zm20.905,5.787c-0.149,2.221.084,3.807-2.285,4.348a22.455,22.455,0,0,1-4.615,0c-2.513-.035-4.9-1.134-5.613-3.731-0.516-1.877.067-4.692,0.048-6.657-0.046-4.7-.128-9.385-0.035-14.084,0.062-3.106-.035-6.2-0.087-9.306-0.042-2.456.168-4.9,0.144-7.358-0.04-4.037,2.7-4.964,6.443-4.958a6.51,6.51,0,0,1,5.189,2.547c0.6,0.932.306,3.206,0.365,4.366,0.122,2.4.171,4.806,0.243,7.209,0.137,4.6.243,9.205,0.292,13.81C650.977,646.619,651.146,651.277,650.84,655.853Zm2.143-15.912q-0.019-2.672-.054-5.35c4.673-.178,9.375-0.208,14.048-0.263,5.445-.064,11.241.559,16.66,0.12q-0.031,2.673-.063,5.34C673.421,640.323,663.157,639.82,652.983,639.941Zm45.326-13.783c-0.078,3.1-.149,6.2-0.087,9.306,0.087,4.4.026,8.794-.026,13.2-0.057,4.859,1.44,11.138-5.516,11.243-1.16.017-3.315,0.441-4.414-.043-3.112-1.367-2.549-3.749-2.6-6.258-0.087-4.338-.091-8.674-0.035-13.012,0.058-4.512.172-9.022,0.316-13.53,0.154-4.87-1.322-13.271,5.772-13.219,4.215,0.031,5.832,1.4,6.526,5.781A36.753,36.753,0,0,1,698.309,626.158Zm8.581,19.269a22.255,22.255,0,0,1-.255,4.558c-0.889,3.437-3.06,3.251-6.138,3.3-0.042-2.177-.235-4.4-0.2-6.412,0.057-3.808.072-7.6,0-11.41-0.094-4.78.258-9.6,0.114-14.384a17.307,17.307,0,0,1,3.836.33c2.306,0.625,2.35.849,2.588,3.436,0.294,3.2.073,6.543,0.114,9.753C706.988,638.208,707.017,641.82,706.89,645.427Zm2.328-5.306c-0.083-1.913-.187-3.79-0.209-5.522,0-.113,0-0.224-0.006-0.338,0.477,0,.953,0,1.43.021,0.7,0.026.712-.122,0.92,0.416a6.422,6.422,0,0,1,.029,1.631c0.033,0.584.114,1.163,0.16,1.746,0.037,0.471.06,0.944,0.055,1.416a3.889,3.889,0,0,0-.026.5,0.611,0.611,0,0,1-.212.057C710.642,640.04,709.932,640.105,709.218,640.121Zm-68.7-21.074c-0.986,2.334-.678,5.281-0.376,7.727,0.16,1.292,2.23,1.306,2.068,0-0.281-2.274-.614-5.015.3-7.183C643.02,618.378,641.02,617.849,640.514,619.047Zm2.855-3.03a1.023,1.023,0,0,0,0,2.045A1.023,1.023,0,0,0,643.369,616.017Zm45.089,2.094a7.524,7.524,0,0,0-.932,3.6,22.771,22.771,0,0,0-.127,4.414c0.111,1.3,2.18,1.314,2.068,0a21.861,21.861,0,0,1,.055-3.672c0.085-1,.087-2.467.721-3.314C691.036,618.084,689.242,617.062,688.458,618.111Zm2.941-2.617a1.023,1.023,0,0,0,0,2.045A1.023,1.023,0,0,0,691.4,615.494Z" transform="translate(-622.688 -611.781)"/>
</svg>
