<svg xmlns="http://www.w3.org/2000/svg" width="90.875" height="65.625" viewBox="0 0 90.875 65.625">
  <defs>
    <style>
      .cls-1 {
        fill: #fff;
        fill-rule: evenodd;
        opacity: 0.7;
      }
    </style>
  </defs>
  <path id="price-2-icon.svg" class="cls-1" d="M864.456,658.7c-0.316-1.635-.866-3.205-2.534-3.9a9.847,9.847,0,0,0-3.426-.4c-1.607-.054-3.206-0.082-4.811-0.021-0.379-1.035-.788-2.059-1.16-3.1-1.672-4.662-3.325-9.352-4.638-14.128-1.134-4.124-2.831-8.28-3.75-12.426,3.161-.348,6.321-0.7,9.474-1.109,3.038-.4,8.338-0.168,8.038-4.261-0.263-3.582-2.113-4.308-4.484-4.231-0.76-2.941-2.53-11.285-6.206-10.9-2.227.229-5.662,3.722-7.49,4.9a115.338,115.338,0,0,0-11.511,8.176,0.993,0.993,0,0,0-.228.288c-1.021.085-2.046,0.167-3.065,0.258-8.2.744-16.436,1.428-24.616,2.363-3.391.387-7.8,0.227-7.335,4.546s3.792,3.991,7.28,3.811q13.459-.69,26.838-2.326a0.932,0.932,0,0,0,.033.22c3.422,9.269,6.6,18.632,9.711,28.008-20.1.311-40.249-.586-60.315,1-5.428.428-7.065,1.383-6.326,7.169,0.462,3.61,2.373,3.915,5.917,4,0.809,0.02,1.618.024,2.426,0.043a1.042,1.042,0,0,0-.091.294c-0.4,3.843,5.138,2.743,7.52,2.676,1.354-.038,3.666.372,4.889-0.269a2.728,2.728,0,0,0,1.082-2.468c16.275,0.186,32.562.108,48.83,0.21a4.979,4.979,0,0,0,1.3,1.625c2.054,1.5,9.265,1.343,11.177.169a2.182,2.182,0,0,0,1.162-2.56c2.031-.082,3.862-0.292,5.277-2.045A6.452,6.452,0,0,0,864.456,658.7Zm-15.008-51.054c0.227-.16,1.414-1.338,1.747-1.266,0.59,0.125,1.143,1.932,1.461,2.544a32.842,32.842,0,0,1,2.413,6.416c-0.769.109-1.559,0.239-2.341,0.334-5.763.707-11.6,1.153-17.413,1.62C839.843,613.816,844.767,610.93,849.448,607.648Zm-50.5,17.272c-0.822-3.424,11.513-3.222,14.175-3.494,5.484-.557,10.965-1.107,16.456-1.605,4.88-.445,9.724-1.194,14.624-1.424,2.277-.106,4.534-0.222,6.8-0.473,1.316-.145,6.5-1.581,7.717-0.61,3.115,2.485-2.359,3.888-3.835,4.1-2.727.39-5.468,0.7-8.205,1-5.044.567-10.091,1.084-15.128,1.7q-8.4,1.039-16.834,1.715C811.821,626.063,799.74,628.206,798.952,624.92Zm-6.261,42.609a24.542,24.542,0,0,1-2.984.086c-0.678.019-5.576,0.549-5.454-.632a0.947,0.947,0,0,0-.027-0.261c3.134,0.065,6.268.126,9.4,0.165C793.611,667.36,793.406,667.415,792.691,667.529Zm-5.637-2.857a71.614,71.614,0,0,1-8-.08c-3.055-.38-2.984-0.578-3.139-2.854-0.127-1.858-.241-2.71,1.251-3.684,2.727-1.782,9.842-1,13.152-1.139,16.971-.722,33.963-0.116,50.943-0.4,0.154,0.466.315,0.93,0.469,1.4,0.562,1.7,1.028,4.685,1.874,7.171Q815.329,664.9,787.054,664.672Zm63.428,2.695c-3.1-.293-3.89-1.2-4.777-3.942-0.892-2.763-1.814-5.517-2.732-8.27a0.818,0.818,0,0,0-.036-0.109c-0.414-1.245-.816-2.494-1.234-3.738-2.843-8.462-5.723-16.917-8.814-25.293,3.066-.365,6.134-0.7,9.2-1.04a0.982,0.982,0,0,0,0,.108c0.722,3.352,2.3,6.48,3.088,9.836,0.8,3.426,1.88,6.787,2.992,10.125,1.209,3.628,2.5,7.226,3.829,10.812a0,0,0,0,0,0,0c0.093,0.253.183,0.507,0.276,0.76,0.815,2.195,3.766,6.878,3.511,9.185C855.58,667.727,852.348,667.544,850.482,667.367Zm11.634-4.746c-1.063,1.756-2.875,1.671-4.683,1.727-0.062-.151-0.125-0.3-0.185-0.453-0.969-2.48-1.875-4.985-2.8-7.481,1.35-.026,2.7-0.008,4.051.039,1.824,0.062,3.231-.071,3.779,1.892A5.378,5.378,0,0,1,862.116,662.621ZM840.857,632.75c-0.44-1.233-2.437-.7-1.992.543,3.06,8.572,5.72,17.278,8.921,25.8,0.46,1.223,2.458.694,1.993-.542C846.577,650.029,843.917,641.322,840.857,632.75Zm-26.242,5.725a1.022,1.022,0,0,0,0-2.044c-5.217,0-10.431-.2-15.648-0.205a1.023,1.023,0,0,0,0,2.046C804.184,638.281,809.4,638.478,814.615,638.475Zm-25.933-.1c1.191,0.02,2.382-.019,3.573,0a1.022,1.022,0,0,0,0-2.044c-1.191-.019-2.382.021-3.573,0A1.022,1.022,0,0,0,788.682,638.373Zm-0.427,8.594c7.5-.417,15.114.028,22.637-0.123a1.023,1.023,0,0,0,0-2.045c-7.523.153-15.136-.293-22.637,0.125C786.933,645,786.924,647.041,788.255,646.967Zm37.588,0.088c1.326,0.1,1.319-1.943,0-2.044-2.983-.227-5.974-0.017-8.961-0.055a1.023,1.023,0,0,0,0,2.045C819.869,647.038,822.86,646.829,825.843,647.055Zm-46.873-.074a21.592,21.592,0,0,1,3.8,0c1.324,0.116,1.316-1.927,0-2.045a21.592,21.592,0,0,0-3.8,0C777.656,645.053,777.644,647.1,778.97,646.981Z" transform="translate(-773.781 -604.219)"/>
</svg>
